# xmcd
#
# Track frame offsets:
# 150
# 19855
# 33797
# 47380
# 65887
# 82302
# 99750
# 110972
# 123257
# 139595
#
# Disc length: 2033 seconds
#
#
# Revision: 0
# Processed by: cddbd v1.5.1PL2 Copyright (c) Steve Scherf et al.
# Submitted via: FreeRIP 2.943 
#
DISCID=8307ef0a
DTITLE=Various Artist - The Best of 90s Country
DYEAR=2004
DGENRE=Country
TTITLE0=Like The Rain - Clint Black
TTITLE1=I Didn't Know My Own Strength - Lorrie Morgan
TTITLE2=Guys Do It All The Time - Mindy McCready
TTITLE3=Bend It Until It Breaks - John Anderson
TTITLE4=I'm Your Man - Jason Sellers
TTITLE5=Baby Likes To Rock It - The Tractors
TTITLE6=Cherokee Boogie - BR5-49
TTITLE7=Should've Asked Her Faster - Ty England
TTITLE8=Never Been Kissed - Sherrie Austin
TTITLE9=She Wants To Rock - The Warren Brothers
EXTD=
EXTT0=
EXTT1=
EXTT2=
EXTT3=
EXTT4=
EXTT5=
EXTT6=
EXTT7=
EXTT8=
EXTT9=
PLAYORDER=
